<svg id="图层_1" xmlns="http://www.w3.org/2000/svg" viewBox="0 0 200 200"><style>.st0{fill:#dbdbdb}</style><path class="st0" d="M100 199.8c-13.5 0-26.6-2.6-38.9-7.9-11.9-5-22.6-12.2-31.8-21.4A98.86 98.86 0 0 1 8 138.8C2.8 126.5.1 113.4.1 99.9S2.7 73.3 8 61c5-11.9 12.2-22.6 21.4-31.8S49.3 12.8 61.2 7.8C73.4 2.6 86.5 0 100 0s26.6 2.6 38.9 7.9c11.9 5 22.6 12.2 31.8 21.4C179.8 38.4 187 49.1 192 61c5.2 12.3 7.9 25.4 7.9 38.9s-2.6 26.6-7.9 38.9c-5 11.9-12.2 22.6-21.4 31.8S150.7 187 138.8 192c-12.2 5.2-25.3 7.8-38.8 7.8zm0-188.4c-11.9 0-23.5 2.3-34.4 7-10.5 4.5-20 10.8-28.1 19S23 55 18.5 65.5c-4.6 10.9-7 22.5-7 34.4s2.3 23.5 7 34.4c4.5 10.5 10.8 20 19 28.1 8.1 8.1 17.6 14.5 28.1 19 10.9 4.6 22.5 7 34.4 7s23.5-2.3 34.4-7c10.5-4.5 20-10.8 28.1-19 8.1-8.1 14.5-17.6 19-28.1 4.6-10.9 7-22.5 7-34.4s-2.3-23.5-7-34.4c-4.5-10.5-10.8-20-19-28.1-8.1-8.1-17.6-14.5-28.1-19-10.9-4.7-22.5-7-34.4-7z"/><path class="st0" d="M108.7 99.9L148 60.6c2.4-2.4 2.4-6.3 0-8.7-2.4-2.4-6.3-2.4-8.7 0L100 91.2 60.7 51.9c-2.4-2.4-6.3-2.4-8.7 0-2.4 2.4-2.4 6.3 0 8.7l39.3 39.3L52 139.2c-1.2 1.2-1.8 2.7-1.8 4.4 0 1.7.6 3.2 1.8 4.4 1.2 1.2 2.8 1.8 4.4 1.8 1.6 0 3.2-.6 4.4-1.8l39.3-39.3 39.3 39.3c1.2 1.2 2.8 1.8 4.4 1.8 1.6 0 3.2-.6 4.4-1.8 2.4-2.4 2.4-6.3 0-8.7l-39.5-39.4z"/></svg>