<svg xmlns="http://www.w3.org/2000/svg" xmlns:xlink="http://www.w3.org/1999/xlink" viewBox="0 0 564 688"><defs><path id="a" d="M0 0h564v688H0z"/></defs><clipPath id="b"><use xlink:href="#a" overflow="visible"/></clipPath><path d="M412 687.1c-83.8 0-151.8-80.7-151.8-180.2 0-99.5 68-180.2 151.8-180.2 83.8 0 151.8 80.7 151.8 180.2 0 99.6-68 180.2-151.8 180.2zm.1-326.1c-67.9 0-122.9 65.4-122.9 146s55 146 122.9 146S535 587.6 535 507c0-80.7-55.1-146-122.9-146zm61.7 205.3L399 531.5s0-.1-.1-.1c-.8-.4-1.4-1.1-2.1-1.7-.8-.6-1.7-1.1-2.3-1.8-1.7-2.1-2.8-4.8-3.4-7.7-.3-1.4-.7-2.8-.7-4.3v-87c0-9.1 6.2-16.5 13.9-16.5h1.1c7.7 0 13.9 7.4 13.9 16.5v75.9l63.5 29.5c6.9 3.2 10.4 12.9 7.9 21.7-2.5 8.9-10.1 13.5-16.9 10.3zm-40-446c0-19-12.9-34.4-28.9-34.4H376V51.7h28.9c31.9 0 57.8 30.8 57.8 68.7v180.5c-9.4-3.2-19-5.6-28.9-7V120.3zm-86.3 17.3h-1.1c-7.7 0-13.9-7.4-13.9-16.5V16.7c0-9.1 6.2-16.5 13.9-16.5h1.1c7.7 0 13.9 7.4 13.9 16.5v104.4c0 9.2-6.2 16.5-13.9 16.5zm-203-85.9H318v34.2H144.5V51.7zm-28.3 85.9H115c-7.7 0-13.9-7.4-13.9-16.5V16.7c0-9.1 6.2-16.5 13.9-16.5h1.1c7.7 0 13.9 7.4 13.9 16.5v104.4c.1 9.2-6.2 16.5-13.8 16.5zm-.6 102.2v1.9c0 9-6.1 16.2-13.7 16.2h-1.6c-7.6 0-13.7-7.3-13.7-16.2v-1.9c0-9 6.1-16.3 13.7-16.3h1.6c7.6 0 13.7 7.3 13.7 16.3zM101.9 361h-1.6c-7.6 0-13.7-7.3-13.7-16.3v-1.9c0-9 6.1-16.2 13.7-16.2h1.6c7.6 0 13.7 7.3 13.7 16.2v1.9c0 9-6.1 16.3-13.7 16.3zm13.7 86.8c0 9-6.1 16.3-13.7 16.3h-1.6c-7.6 0-13.7-7.3-13.7-16.3v-1.9c0-9 6.1-16.3 13.7-16.3h1.6c7.6 0 13.7 7.3 13.7 16.3v1.9zm42.8-18.1h85.1c-3.6 11.1-6.6 22.5-8.6 34.4h-76.5c-7.7 0-13.9-7.4-13.9-16.5v-1.3c0-9.2 6.2-16.6 13.9-16.6zm-13.9-187.9v-2.1c0-8.9 6.1-16.1 13.5-16.1h218.7c7.5 0 13.6 7.2 13.6 16.1v2.1c0 8.9-6.1 16.1-13.6 16.1H158.1c-7.5 0-13.6-7.2-13.6-16.1zM158.4 361c-7.7 0-13.9-7.4-13.9-16.5v-1.3c0-9.1 6.2-16.5 13.9-16.5h155.8c-12.7 9.7-24.2 21.3-34.4 34.4H158.4zM28.8 120.3v446.6c0 19 12.9 34.4 28.9 34.4h192.1c5 12.2 11 23.8 17.8 34.5H57.8C25.9 635.8 0 605 0 567.1V120.5c0-37.9 25.9-68.7 57.8-68.7h28.9V86H57.8c-16-.1-29 15.3-29 34.3zm0 0" clip-path="url(#b)"/></svg>