<svg class="icon" viewBox="0 0 1024 1024" xmlns="http://www.w3.org/2000/svg" width="200" height="200"><defs><style/></defs><path d="M768 416v448a32 32 0 0 1-32 32H288a32 32 0 0 1-32-32V416a32 32 0 0 0-64 0v448a96.11 96.11 0 0 0 96 96h448a96.11 96.11 0 0 0 96-96V416a32 32 0 0 0-64 0z"/><path d="M864 192H672v-32a96.11 96.11 0 0 0-96-96H448a96.11 96.11 0 0 0-96 96v32H160a96 96 0 0 0 0 192h704a96 96 0 0 0 0-192zm-448-32a32 32 0 0 1 32-32h128a32 32 0 0 1 32 32v32H416v-32zm448 160H160a32 32 0 0 1 0-64h704a32 32 0 0 1 0 64zM352 800a32 32 0 0 0 32-32V512a32 32 0 0 0-64 0v256a32 32 0 0 0 32 32zm320 0a32 32 0 0 0 32-32V512a32 32 0 0 0-64 0v256a32 32 0 0 0 32 32zm-160 0a32 32 0 0 0 32-32V512a32 32 0 0 0-64 0v256a32 32 0 0 0 32 32z"/></svg>