<svg id="图层_1" xmlns="http://www.w3.org/2000/svg" viewBox="0 0 200 200"><style>.st0{fill:#fff}</style><path class="st0" d="M170.8 178.1c0-4 3.3-7.3 7.3-7.3s7.3 3.3 7.3 7.3-3.3 7.3-7.3 7.3-7.3-3.3-7.3-7.3m29.2 0c0-12.1-9.9-21.9-21.9-21.9-8.8 0-14.1 3.4-17.8 9.8-6.8-3.7-7.6-21.3-8.1-33.1v-48c9.1-3 15.3-11.5 15.2-21.1 0-12.3-9.9-22.2-22.1-22.2-12.2 0-22.1 10-22.1 22.2 0 9.5 6 17.9 15 21v48c.5 23.6 1.6 40.3 19 51.2 2.4 9.5 10.9 15.9 21 15.9 12.1.1 21.8-9.7 21.8-21.8M97.8 29.3c-4.3 0-7.9-3.5-7.9-7.9s3.5-7.9 7.9-7.9c4.3 0 7.9 3.5 7.9 7.9s-3.6 7.9-7.9 7.9m7.9 126.8V43.6c7.2-3.1 14.8-11.4 14.8-21.2C120.5 10.1 110.4 0 98.1 0S75.9 10.1 75.9 22.5c0 9.8 4.6 18.1 15.4 21.2v112.5c-10.8 3-15.3 11.3-15.3 21.1 0 12.4 9.6 22.5 22 22.5 12.3 0 22.5-10.1 22.5-22.5-.1-9.8-7.6-18.1-14.8-21.2"/><path class="st0" d="M21.9 185.4c-4 0-7.3-3.3-7.3-7.3s3.3-7.3 7.3-7.3 7.3 3.3 7.3 7.3-3.3 7.3-7.3 7.3m-.1 14.6c10.2 0 18.6-6.4 21-15.9 17.4-10.9 18.5-27.6 19-51.2v-48c9-3.1 15-11.6 15-21 0-12.3-9.9-22.2-22.1-22.2-12.2 0-22.1 9.9-22.1 22.2 0 9.9 6.4 18.2 15.2 21.1v48c-.4 11.8-1.3 29.3-8.1 33-3.7-6.4-9-9.8-17.8-9.8C9.9 156.1 0 166 0 178.1 0 190.2 9.7 200 21.8 200"/></svg>