<svg id="图层_1" xmlns="http://www.w3.org/2000/svg" viewBox="0 0 612 728"><style>.st0{fill:#fff}</style><path class="st0" d="M437.1 0L612 194.1H437.1V0zm0 0"/><path class="st0" d="M0 0v728h612V242.7h-43.7v436.8H43.7v-631h349.7V0H0zm0 0"/><path class="st0" d="M431.2 464.3c-18.4 27-77.3 46.8-147 46.8s-128.6-19.8-147-46.8c-3.9-5.7-6-2.7-6 .2v39.7c0 38.4 68.5 78.3 153 78.3s153-39.8 153-78.3v-39.7c-.1-2.9-2.2-5.9-6-.2zm.2-121.6c-18.1 25.7-77.2 44.6-147.2 44.6-70.1 0-129.1-18.9-147.2-44.6-3.8-5.3-5.7-2.4-5.7 0V393c0 37.6 68.5 68.1 153 68.1s153-30.5 153-68.1v-50.3c-.2-2.4-2.2-5.3-5.9 0zM284.1 194.1c-84.5 0-153 25.7-153 57.3v27.4c0 33.6 68.5 60.8 153 60.8s153-27.2 153-60.8v-27.4c0-31.6-68.5-57.3-153-57.3zm0 0"/></svg>