<svg xmlns="http://www.w3.org/2000/svg" viewBox="0 0 612 612"><path d="M516.4 420.7c-19.1 0-38.2 7.6-53.5 15.3l-30.6-30.6c15.3-23 26.8-49.7 26.8-80.3 0-42.1-19.1-80.3-49.7-103.3l15.3-30.6H440c53.5 0 95.6-42.1 95.6-95.6C535.6 42.1 493.5 0 440 0c-53.6 0-95.6 42.1-95.6 95.6 0 34.4 19.1 61.2 42.1 80.3L375 202.7c-15.3-7.6-30.6-11.5-49.7-11.5-72.7 0-133.9 61.2-133.9 133.9 0 19.1 3.8 34.4 11.5 49.7L176 386.3c-19.1-22.9-45.9-42.1-80.3-42.1-53.6 0-95.7 42.1-95.7 95.7s42.1 95.6 95.6 95.6 95.6-42.1 95.6-95.6v-15.3l30.6-15.3c23 30.6 61.2 49.7 103.3 49.7 30.6 0 57.4-11.5 80.3-26.8l30.6 30.6c-7.7 15.3-15.3 34.4-15.3 53.5 0 53.5 42.1 95.6 95.6 95.6 53.6 0 95.6-42.1 95.6-95.6.1-53.5-42-95.6-95.5-95.6zM439.9 38.2c30.6 0 57.4 26.8 57.4 57.4 0 30.6-26.8 57.4-57.4 57.4-30.6 0-57.4-26.8-57.4-57.4 0-30.6 26.8-57.3 57.4-57.4zM95.6 497.3c-30.6 0-57.4-26.8-57.4-57.4 0-30.6 26.8-57.4 57.4-57.4 30.6 0 57.4 26.8 57.4 57.4 0 30.6-26.8 57.4-57.4 57.4zm133.9-172.2c0-53.5 42.1-95.6 95.6-95.6s95.6 42.1 95.6 95.6-42.1 95.6-95.6 95.6-95.6-42-95.6-95.6zm286.9 248.6c-30.6 0-57.4-26.8-57.4-57.4 0-30.6 26.8-57.4 57.4-57.4 30.6 0 57.4 26.8 57.4 57.4 0 30.7-26.8 57.4-57.4 57.4zm0 0" fill="#fff"/></svg>