<svg xmlns="http://www.w3.org/2000/svg" xmlns:xlink="http://www.w3.org/1999/xlink" viewBox="0 0 612 607"><defs><path id="a" d="M1.5 0h609v607H1.5z"/></defs><clipPath id="b"><use xlink:href="#a" overflow="visible"/></clipPath><path d="M379.2 49.5c70.7 7.1 127.5 49.5 139.6 122.2h-40.9l66.1 98 66.1-98h-45.6C552.3 73.8 477.9 10.1 383.9 1c-13-1-25.1 10.1-25.1 24.2.8 12.2 9.2 23.3 20.4 24.3zM276.8 0H47C34 0 23.8 11.1 23.8 25.3v218.2c0 14.2 10.2 25.3 23.3 25.3h229.8c13 0 23.3-11.1 23.3-25.3V25.3C300.1 11.1 289.9 0 276.8 0zm-22.3 220.3H69.4V48.5h185.2l-.1 171.8zm-22.3 335.4c-79.1-7.1-139.6-59.6-142.4-146.5h43.7l-66-98-66.1 98h43.7c1.8 112.2 80.9 184.9 182.4 195 13 1 25.1-10.1 25.1-24.3.2-12-8.5-22.3-20.4-24.2zm333.1-219.3H335.5c-13.1 0-23.3 11.2-23.3 25.3V581c0 14.1 10.2 25.2 23.3 25.2h229.8c13 0 23.2-11.1 23.2-25.2V361.7c.1-14.1-11.1-25.3-23.2-25.3zM543 556.7H357.8V385.9H543v170.8zm0 0" clip-path="url(#b)"/></svg>