<svg xmlns="http://www.w3.org/2000/svg" viewBox="0 0 139.9 139.9"><path d="M119.1 119.1v-11.4c8-10.7 12.7-23.4 12.7-38.1 0-14.1-4.7-27.4-12.7-37.5v-12 .7c12.7 12 20.7 29.4 20.7 48.9.1 19.3-8 36.7-20.7 49.4zm0-46.1h3.3c1.3 0 2.7-1.3 2.7-3.3 0-1.3-1.3-3.3-2.7-3.3h-3.3V73zM69.6 12.7c2 0 3.3 1.3 3.3 3.3v8c0 1.3-1.3 3.3-3.3 3.3V12.7zm49.5 7.4C106.4 7.4 89 0 69.6 0v8c17.4 0 32.8 6.7 44.2 18.1 2 2 3.3 4 5.4 6v-12h-.1zm0 46.2V73h-3.3c-2 0-3.3-1.3-3.3-3.3 0-1.3 1.3-3.3 3.3-3.3h3.3v-.1zm0 41.5v11.4c-12.7 12.7-30.1 20.7-48.9 20.7h-.7v-8h.7c16.7 0 32.1-7.4 43.5-18.1 2.1-2 3.4-4 5.4-6zm-49.5 18.7c2 0 3.3-1.3 3.3-2.7v-8c0-2-1.3-3.3-3.3-3.3v14zm0-35.5V79.6l8 11.4 8-9.4 8-9.4-24-12.6v-8l30.8 16.7c2 .7 2.7 2.7 1.3 4.7l-.7.7-10.7 12-10.7 12.7c-1.3 1.3-3.3 1.3-4.7 0h-.7L69.6 91zm-2.7-74.9c0-2 .7-3.3 2.7-3.3v14.7c-2-.7-2.7-2-2.7-3.3v-8.1zM69.6 0C50.9 0 33.5 8 20.7 20.1v12c2-2 3.3-4 5.4-6C37.5 14.7 52.9 8 69.6 8V0zm0 51.5v8l-4-2.7h-.7L45.5 46.2l12.7 18.1 11.4 15.4V91L52.9 68.3 31.5 38.8c-.7-2-.7-4 .7-4.7 1.3-.7 2.7-.7 4-.7l32.1 17.4 1.3.7zm0 60.9v14.1c-2 0-2.7-1.3-2.7-2.7v-8c0-2 .7-3.4 2.7-3.4zm0 19.4c-16.7 0-32.1-7.4-43.5-18.1-2-2-3.3-4-5.4-6v11.4c12.7 12.7 30.1 20.1 48.9 20.7v-8zM20.7 73v-6.7H24c2 0 3.3 2 3.3 3.3 0 2-1.3 3.3-3.3 3.3h-3.3zm0-52.9v12C12.7 42.2 8 55.5 8 69.6c0 14.7 4.7 27.4 12.7 38.1v11.4C8 106.4 0 89 0 69.6s8-36.8 20.7-49.5zm0 46.2h-3.3c-1.3 0-3.3 2-3.3 3.3 0 2 2 3.3 3.3 3.3h3.3v-6.6z"/></svg>